<svg xmlns="http://www.w3.org/2000/svg" width="70" height="70" viewBox="0 0 70 70">
  <path id="Icon_awesome-whatsapp" data-name="Icon awesome-whatsapp" d="M59.516,12.422A34.7,34.7,0,0,0,4.922,54.281L0,72.25l18.391-4.828a34.582,34.582,0,0,0,16.578,4.219h.016C54.094,71.641,70,56.078,70,36.953A34.824,34.824,0,0,0,59.516,12.422ZM34.984,65.8A28.78,28.78,0,0,1,20.3,61.781l-1.047-.625L8.344,64.016,11.25,53.375l-.687-1.094A28.887,28.887,0,1,1,64.141,36.953c0,15.906-13.266,28.844-29.156,28.844ZM50.8,44.2c-.859-.437-5.125-2.531-5.922-2.812-.8-.3-1.375-.437-1.953.438s-2.234,2.813-2.75,3.406c-.5.578-1.016.656-1.875.219-5.094-2.547-8.438-4.547-11.8-10.312-.891-1.531.891-1.422,2.547-4.734a1.606,1.606,0,0,0-.078-1.516c-.219-.437-1.953-4.7-2.672-6.437-.7-1.687-1.422-1.453-1.953-1.484-.5-.031-1.078-.031-1.656-.031a3.211,3.211,0,0,0-2.312,1.078,9.739,9.739,0,0,0-3.031,7.234c0,4.266,3.109,8.391,3.531,8.969.438.578,6.109,9.328,14.812,13.094,5.5,2.375,7.656,2.578,10.406,2.172,1.672-.25,5.125-2.094,5.844-4.125a7.249,7.249,0,0,0,.5-4.125C52.234,44.844,51.656,44.625,50.8,44.2Z" transform="translate(0 -2.25)" fill="#fff"/>
</svg>
